<svg version="1.1" id="Layer_1" xmlns="http://www.w3.org/2000/svg" xmlns:xlink="http://www.w3.org/1999/xlink" x="0px" y="0px"
	 viewBox="0 0 215.1 232" style="enable-background:new 0 0 215.1 232;" xml:space="preserve">
<style type="text/css">
	.st0{fill:url(#SVGID_1_);}
	.st1{fill:url(#SVGID_00000020376909615018061180000002999731231060103055_);}
	.st2{fill:#4A7DFF;}
	.st3{fill:url(#SVGID_00000145739190856944797510000002574196568760817563_);}
	.st4{fill:url(#SVGID_00000126311758518455690010000013261415462721839489_);}
	.st5{fill:url(#SVGID_00000080203849758908023910000006579771019343460243_);}
	.st6{fill:url(#SVGID_00000036253517925240671420000001617887307510823070_);}
	.st7{fill:#FFFFFF;}
	.st8{fill:url(#SVGID_00000039096221080520569650000006969377391728115868_);}
	.st9{fill:url(#SVGID_00000118379480737131637380000000622574136797420729_);}
	.st10{fill:url(#SVGID_00000106843666677954350020000001399180907584994466_);}
	.st11{fill:url(#SVGID_00000021825187845267883630000010542719646401999266_);}
	.st12{fill:url(#SVGID_00000056406313368318452500000000229617901864275108_);}
	.st13{fill:url(#SVGID_00000125589323158946604990000008145222830388623233_);}
	.st14{fill:url(#SVGID_00000178164712944932130360000004582068122334533285_);}
	.st15{fill:url(#SVGID_00000015338007691923825540000001567562418209769141_);}
	.st16{fill:url(#SVGID_00000162333099334970415580000002319995301549079227_);}
	.st17{fill:url(#SVGID_00000080175812102991658430000000951658687293769370_);}
	.st18{fill:url(#SVGID_00000040561581439338827270000011919970425674703252_);}
	.st19{fill:url(#SVGID_00000072987138210105721400000004787155255285551509_);}
	.st20{fill:url(#SVGID_00000065769124077146824340000010251052765127141523_);}
	.st21{fill:url(#SVGID_00000053513027144578769510000014434963530901341068_);}
	.st22{fill:url(#SVGID_00000157300469783407483200000006394823329598674359_);}
	.st23{fill:url(#SVGID_00000084494143007663016300000009734219196745414578_);}
	.st24{fill:url(#SVGID_00000018213699709664334200000011039027939778184102_);}
	.st25{fill:url(#SVGID_00000023984030507709653070000004395180372207673509_);}
	.st26{fill:url(#SVGID_00000131352234446071939330000005470423987399382945_);}
	.st27{fill:url(#SVGID_00000056422051406277615930000001406530675445502877_);}
	.st28{fill:url(#SVGID_00000168813377089021784510000017090836794757959844_);}
	.st29{fill:url(#SVGID_00000061447407289340557980000010246327689663079087_);}
	.st30{fill:url(#SVGID_00000140694421927790640640000015068327401636701061_);}
	.st31{fill:url(#SVGID_00000165927866615871866140000011532863543582620038_);}
</style>
<g>
	<linearGradient id="SVGID_1_" gradientUnits="userSpaceOnUse" x1="93.2706" y1="112.5476" x2="160.6228" y2="112.5476">
		<stop  offset="0" style="stop-color:#21E786"/>
		<stop  offset="0.631" style="stop-color:#4A7DFF"/>
	</linearGradient>
	<path class="st0" d="M98.4,126c-1.9,0-3.5-1-4.4-2.6c-0.9-1.6-0.9-3.5,0-5.1l8.6-14.8c1.6-2.7,4.6-4.4,7.7-4.4h50.3v6.5h-50.3
		c-0.9,0-1.7,0.5-2.1,1.2l-7.4,12.6h34.3v6.5H98.4z"/>
	
		<linearGradient id="SVGID_00000121272737751428158320000002634263456562326401_" gradientUnits="userSpaceOnUse" x1="94.9373" y1="112.5476" x2="160.1161" y2="112.5476">
		<stop  offset="0" style="stop-color:#21E786"/>
		<stop  offset="0.631" style="stop-color:#4A7DFF"/>
	</linearGradient>
	<path style="fill:url(#SVGID_00000121272737751428158320000002634263456562326401_);" d="M134.6,124.9H99c-1.5,0-2.8-0.8-3.5-2
		c-0.7-1.3-0.7-2.8,0-4l8.6-14.8c1.4-2.4,4-3.9,6.8-3.9h49.2v4.4h-49.2c-1.2,0-2.4,0.7-3,1.7l-8.3,14.3h35.1V124.9z"/>
	<path class="st2" d="M87.6,148.6c-3.2,0-6.3-1.7-7.9-4.5l0,0c-3-5.1-9.9-17.1-10.6-18.4c-3.2-6.2-4.8-11.5-4.6-16
		c0.1-3.5,1.3-5.3,1.7-5.8l0.7-0.8l2.5,2l1.6,1.1l0.5,1.6c-0.1,0.1-0.5,1.1-0.4,3.3c0.1,2.1,0.9,5.9,3.9,11.6
		c0.5,1,6.7,11.6,10.5,18.1c0.5,0.8,1.3,1.3,2.2,1.3h31.5c0.9,0,1.8-0.5,2.2-1.3l13.3-23.1c2.1-3.6,3.4-6.2,3.4-8.2
		c0-1.6-0.8-3.1-3.2-5.5l-0.8-0.8l5-4.2l0.4,0.4c1.7,1.8,3,3.4,3.8,5c0.9,1.6,1.3,3.3,1.3,5c0,3.5-1.7,7.1-4.3,11.5L127,144
		c-1.6,2.8-4.6,4.5-7.9,4.5H87.6z"/>
	<path class="st2" d="M119.1,147.5H87.6c-2.8,0-5.5-1.5-6.9-4c-1-1.7-9.9-17-10.6-18.4c-7.5-14.3-3.5-20-3-20.6l3.4,2.7l-1.7-1.4
		l1.8,1.3c0,0-2.6,4.3,3.4,15.9c0.6,1.1,7.8,13.5,10.5,18.2c0.7,1.1,1.9,1.8,3.2,1.8h31.5c1.3,0,2.5-0.7,3.1-1.8l13.3-23.1
		c4.7-8.1,4.7-10.2,0.1-14.9l3.1-3.1c6.6,6.7,5.9,11.1,0.6,20.2L126,143.5C124.6,146,122,147.5,119.1,147.5z"/>
	
		<linearGradient id="SVGID_00000056421836328552796870000006909781587510838183_" gradientUnits="userSpaceOnUse" x1="39.4662" y1="112.2521" x2="167.2845" y2="112.2521">
		<stop  offset="0" style="stop-color:#21E786"/>
		<stop  offset="1" style="stop-color:#4A7DFF"/>
	</linearGradient>
	<path style="fill:url(#SVGID_00000056421836328552796870000006909781587510838183_);" d="M78.9,169.6c-5.3,0-10.3-2.9-12.9-7.5
		l-24.5-42.4c-2.7-4.6-2.7-10.3,0-14.9L66,62.4c2.7-4.6,7.6-7.5,12.9-7.5h49c5.3,0,10.3,2.9,12.9,7.5c0.7,1.1,0.6,2.6-0.2,3.6
		l-13.8,18.1c-0.6,0.8-1.6,1.3-2.6,1.3c-0.1,0-0.2,0-0.2,0c-1.1-0.1-2.1-0.7-2.6-1.6c-0.5-0.8-1.3-1.3-2.2-1.3H87.6
		c-0.9,0-1.8,0.5-2.2,1.3c0,0-0.1,0.2-0.2,0.4c-4.8,8.3-20.7,35.4-22.3,38.4c-3.4,6.6-4.2,11.9-4.4,13.8l13,22.6
		c1.5,2.6,4.3,4.2,7.2,4.2h49c3,0,5.8-1.6,7.2-4.2l24.5-42.4c1.5-2.6,1.5-5.8,0-8.4l-2.3-4.1c-0.4-0.8-0.6-1.6-0.3-2.5
		c0.2-0.8,0.8-1.5,1.5-2c0.5-0.3,1.1-0.4,1.6-0.4c1.2,0,2.2,0.6,2.8,1.6l2.3,4.1c2.7,4.6,2.7,10.3,0,14.9l-24.5,42.4
		c-2.7,4.6-7.6,7.5-12.9,7.5H78.9z M78.9,61.4c-3,0-5.8,1.6-7.2,4.2l-24.5,42.4c-1.5,2.6-1.5,5.8,0,8.4l6.6,11.4
		c0.9-2.8,2-5.6,3.4-8.3c1.9-3.6,22.4-38.6,22.6-39.1c1.6-2.8,4.6-4.5,7.9-4.5h31.5c1.6,0,3.3,0.5,4.7,1.3L133.9,64
		c-1.6-1.6-3.7-2.5-6-2.5H78.9z"/>
	
		<linearGradient id="SVGID_00000083781202977218640190000010328598995666172570_" gradientUnits="userSpaceOnUse" x1="40.5514" y1="112.2521" x2="166.1994" y2="112.2521">
		<stop  offset="0" style="stop-color:#21E786"/>
		<stop  offset="0.9973" style="stop-color:#4A7DFF"/>
	</linearGradient>
	<path style="fill:url(#SVGID_00000083781202977218640190000010328598995666172570_);" d="M127.9,168.5h-49c-4.9,0-9.5-2.6-12-6.9
		l-24.5-42.4c-2.5-4.3-2.5-9.6,0-13.8l24.5-42.4c2.5-4.3,7-6.9,12-6.9h49c4.9,0,9.5,2.6,12,6.9c0.4,0.8,0.4,1.7-0.2,2.4l-13.8,18.1
		c-0.4,0.6-1.1,0.9-1.9,0.9c-0.7,0-1.4-0.5-1.7-1.1c-0.6-1.1-1.9-1.8-3.1-1.8H87.6c-1.3,0-2.5,0.7-3.1,1.8
		C84.3,83.6,63.7,118.6,62,122c-3.7,7.2-4.4,12.8-4.5,14.5l13.2,22.9c1.7,2.9,4.8,4.7,8.2,4.7h49c3.4,0,6.5-1.8,8.2-4.7l24.5-42.4
		c1.7-2.9,1.7-6.5,0-9.5l-2.3-4.1c-0.6-1-0.2-2.4,0.8-3c1-0.6,2.4-0.2,3,0.8l2.3,4.1c2.5,4.3,2.5,9.6,0,13.8l-24.5,42.4
		C137.4,165.9,132.8,168.5,127.9,168.5z M78.9,60.4c-3.4,0-6.5,1.8-8.2,4.7l-24.5,42.4c-1.7,2.9-1.7,6.5,0,9.5l7.9,13.7
		c0.7-2.9,1.9-6.5,4-10.6c1.8-3.5,21.8-37.6,22.6-39c1.4-2.5,4.1-4,6.9-4h31.5c1.8,0,3.5,0.6,4.9,1.7l11.3-14.8
		c-1.8-2.2-4.5-3.6-7.4-3.6H78.9z"/>
</g>
</svg>
