<svg width="25" height="24" viewBox="0 0 25 24" fill="none"
  xmlns="http://www.w3.org/2000/svg">
  <path fill-rule="evenodd" clip-rule="evenodd" d="M11.6284 2.50974L2.62842 18.5097C2.25345 19.1763 2.73516 20 3.49999 20H21.5C22.2648 20 22.7465 19.1763 22.3716 18.5097L13.3716 2.50974C12.9893 1.83009 12.0107 1.83009 11.6284 2.50974ZM12.5 5.039L19.79 18H5.20899L12.5 5.039ZM11.5 16C11.5 16.5523 11.9477 17 12.5 17C13.0523 17 13.5 16.5523 13.5 16C13.5 15.4477 13.0523 15 12.5 15C11.9477 15 11.5 15.4477 11.5 16ZM11.5 13C11.5 13.5523 11.9477 14 12.5 14C13.0523 14 13.5 13.5523 13.5 13V10C13.5 9.44772 13.0523 9 12.5 9C11.9477 9 11.5 9.44772 11.5 10V13Z" fill="#FFC93D"/>
</svg>
